# AST/ASF file generated using VICON BodyLanguage
# -----------------------------------------------
:version 1.10
:name VICON
:units
  mass 1.0
  length 0.45
  angle deg
:documentation
   .ast/.asf automatically generated from VICON data using
   VICON BodyBuilder and BodyLanguage model FoxedUp or BRILLIANT.MOD
:root
   order TX TY TZ RX RY RZ
   axis XYZ
   position 0 0 0  
   orientation 0 0 0 
:bonedata
  begin
     id 1 
     name lhipjoint
     direction 0.62366 -0.717238 0.310833 
     length 2.53602 
     axis 0 0 0  XYZ
  end
  begin
     id 2 
     name lfemur
     direction 0.34202 -0.939693 0  
     length 7.40817  
     axis 0 0 20  XYZ
    dof rx ry rz
    limits (-160.0 20.0)
           (-70.0 70.0)
           (-60.0 70.0)
  end
  begin
     id 3 
     name ltibia
     direction 0.34202 -0.939693 0   
     length 7.7045   
     axis 0 0 20   XYZ
    dof rx
    limits (-10.0 170.0)
  end
  begin
     id 4 
     name lfoot
     direction 0.0673888 -0.185149 0.980397   
     length 2.09456   
     axis -90 7.62852e-016 20   XYZ
    dof rx rz
    limits (-45.0 90.0)
           (-70.0 20.0)
  end
  begin
     id 5 
     name ltoes
     direction 1.53575e-011 -4.21994e-011 1   
     length 1.05543   
     axis -90 7.62852e-016 20   XYZ
    dof rx
    limits (-90.0 20.0)
  end
  begin
     id 6 
     name rhipjoint
     direction -0.489018 -0.800347 0.346851   
     length 2.27268  
     axis 0 0 0  XYZ 
  end
  begin
     id 7 
     name rfemur
     direction -0.34202 -0.939693 0   
     length 7.55487   
     axis 0 0 -20   XYZ
    dof rx ry rz
    limits (-160.0 20.0)
           (-70.0 70.0)
           (-70.0 60.0)
  end
  begin
     id 8 
     name rtibia
     direction -0.34202 -0.939693 0   
     length 7.78969   
     axis 0 0 -20   XYZ
    dof rx
    limits (-10.0 170.0)
 end
 begin
     id 9 
     name rfoot
     direction -0.0859318 -0.236096 0.967923   
     length 2.19143  
     axis -90 -7.62852e-016 -20   XYZ
    dof rx rz
    limits (-45.0 90.0)
           (-20.0 70.0)
  end
  begin
     id 10 
     name rtoes
     direction -1.53538e-011 -4.21989e-011 1   
     length 1.09845   
     axis -90 -7.62852e-016 -20   XYZ
    dof rx
    limits (-90.0 20.0)
  end
  begin
     id 11 
     name lowerback
     direction -0.00762546 0.998978 -0.0445553   
     length 1.98161   
     axis 0 0 0   XYZ
    dof rx ry rz
    limits (-20.0 45.0)
           (-30.0 30.0)
           (-30.0 30.0)
  end
  begin
     id 12 
     name upperback
     direction 0.0422361 0.998867 -0.0219156   
     length 1.97558   
     axis 0 0 0   XYZ
    dof rx ry rz
    limits (-20.0 45.0)
           (-30.0 30.0)
           (-30.0 30.0)
  end
  begin
     id 13 
     name thorax
     direction 0.0442465 0.999021 7.47603e-005   
     length 1.97799   
     axis 0 0 0   XYZ
    dof rx ry rz
    limits (-20.0 45.0)
           (-30.0 30.0)
           (-30.0 30.0)
  end
  begin
     id 14 
     name lowerneck
     direction 0.00312169 0.984641 0.174564   
     length 1.78995   
     axis 0 0 0   XYZ
    dof rx ry rz
    limits (-20.0 45.0)
           (-30.0 30.0)
           (-30.0 30.0)
  end
  begin
     id 15 
     name upperneck
     direction -0.0383028 0.985255 -0.166749   
     length 1.83053   
     axis 0 0 0   XYZ
    dof rx ry rz
    limits (-20.0 45.0)
           (-30.0 30.0)
           (-30.0 30.0)
  end
  begin
     id 16
     name head
     direction -0.0129546 0.997059 -0.0755386  
     length 1.84088  
     axis 0 0 0   XYZ
    dof rx ry rz
    limits (-20.0 45.0)
           (-30.0 30.0)
           (-30.0 30.0)
  end
  begin
     id 17 
     name lclavicle
     direction 0.912857 0.370519 -0.171488  
     length 3.51279  
     axis 0 0 0   XYZ
    dof ry rz
    limits (-20.0 10.0)
           (0.0 20.0)
  end
  begin
     id 18 
     name lhumerus
     direction 1 -4.48962e-011 3.64361e-027   
     length 4.95663   
     axis 180 -30 -90   XYZ
    dof rx ry rz
    limits (-60.0 90.0)
           (-90.0 90.0)
           (-90.0 90.0)
  end
  begin
     id 19
     name lradius
     direction 1 -4.48974e-011 5.97202e-027   
     length 3.38177   
     axis 180 -30 -90   XYZ
    dof rx
    limits (-10.0 170.0)
  end
  begin
     id 20
     name lwrist
     direction 1 -4.4896e-011 9.83288e-027   
     length 1.69088   
     axis -9.31221e-015 90 90   XYZ
    dof ry
    limits (-180.0 0.0)
 end
  begin
     id 21 
     name lhand
     direction 1 -4.4902e-011 1.96551e-026   
     length 0.662909   
     axis -1.25475e-014 90 90   XYZ
    dof rx rz
    limits (-90.0 90.0)
           (-45.0 45.0)
  end
  begin
     id 22 
     name lfingers
     direction 1 -4.48971e-011 3.93277e-026   
     length 0.534454   
     axis -2.50945e-014 90 90   XYZ
    dof rx
    limits (0.0 90.0)
  end
  begin
     id 23
     name lthumb
     direction 0.707107 -6.34933e-011 0.707107   
     length 0.767373   
     axis -90 45 -4.80359e-014   XYZ
    dof rx rz
    limits (-45.0 45.0)
           (-45.0 45.0)
  end
  begin
     id 24 
     name rclavicle
     direction -0.900919 0.395364 -0.178976   
     length 3.40627  
     axis 0 0 0   XYZ 
    dof ry rz
    limits (-10.0 20.0)
           (-20.0 0.0)
  end
  begin
     id 25 
     name rhumerus
     direction -1 -4.48969e-011 1.03875e-027  
     length 5.08365   
     axis 180 30 90   XYZ
    dof rx ry rz
    limits (-90.0 60.0)
           (-90.0 90.0)
           (-90.0 90.0)
  end
  begin
     id 26 
     name rradius
     direction -1 -4.48951e-011 5.02733e-027   
     length 3.35984   
     axis 180 30 90   XYZ
    dof rx
    limits (-10.0 170.0)
  end
  begin
     id 27 
     name rwrist
     direction -1 -4.49011e-011 9.82828e-027   
     length 1.67992   
     axis -9.31221e-015 -90 -90   XYZ
    dof ry
    limits (-180.0 0.0)
  end
  begin
     id 28
     name rhand
     direction -1 -4.48894e-011 1.96774e-026   
     length 0.820764   
     axis -1.25475e-014 -90 -90   XYZ
    dof rx rz
    limits (-90.0 90.0)
           (-45.0 45.0)
  end
  begin
     id 29
     name rfingers
     direction -1 -4.49095e-011 3.92833e-026   
     length 0.661721   
     axis -2.50945e-014 -90 -90   XYZ
    dof rx
    limits (0.0 90.0)
  end
  begin
     id 30
     name rthumb
     direction -0.707107 -6.34881e-011 0.707107   
     length 0.950103   
     axis -90 -45 4.80359e-014   XYZ
    dof rx rz
    limits (-45.0 45.0)
           (-45.0 45.0)
  end
:hierarchy
  begin
    root lhipjoint rhipjoint lowerback
    lhipjoint lfemur
    lfemur ltibia
    ltibia lfoot
    lfoot ltoes
    rhipjoint rfemur
    rfemur rtibia
    rtibia rfoot
    rfoot rtoes
    lowerback upperback
    upperback thorax
    thorax lowerneck lclavicle rclavicle
    lowerneck upperneck
    upperneck head
    lclavicle lhumerus
    lhumerus lradius
    lradius lwrist
    lwrist lhand lthumb
    lhand lfingers
    rclavicle rhumerus
    rhumerus rradius
    rradius rwrist
    rwrist rhand rthumb
    rhand rfingers
  end

#!OML:ASF I:\golf\golf\golf 2\Subject 1\2002-09-07\Subject1.ASF
:FULLY-SPECIFIED
:DEGREES
1
root 1.09915 17.8039 -7.97065 8.9635 -6.60087 -7.70134
lowerback -4.92409 0.262236 -0.269086
upperback 0.280184 0.199668 5.21871
thorax 3.0374 0.0504181 5.59192
lowerneck -20.2958 -1.33349 -0.734631
upperneck 37.4793 0.267437 -5.09113
head 17.1178 -0.779872 -2.12321
rclavicle 8.15017e-015 -1.86858e-014
rhumerus -26.7393 2.2861 -85.8086
rradius 28.7007
rwrist -11.2678
rhand -20.9589 12.5054
rfingers 7.12502
rthumb 5.41406 -17.4054
lclavicle 8.15017e-015 -1.86858e-014
lhumerus -25.333 -3.84677 91.4859
lradius 24.2397
lwrist -0.308465
lhand -11.5364 30.6485
lfingers 7.12502
lthumb 14.5037 60.1216
rfemur -17.5094 3.35263 24.6401
rtibia 32.0092
rfoot -17.5344 -5.9508
rtoes 2.12756
lfemur -22.4402 2.81895 -13.0208
ltibia 38.7342
lfoot -19.5181 6.76169
ltoes -5.46561
2
root 1.09401 17.8115 -7.97479 9.03876 -6.54336 -7.73655
lowerback -5.0156 0.299359 -0.170486
upperback 0.308064 0.238335 5.26122
thorax 3.11431 0.0694815 5.58525
lowerneck -20.3393 -1.09342 -0.66376
upperneck 37.7858 0.635931 -5.11753
head 17.3106 -0.62461 -2.08809
rclavicle -1.04362e-014 2.38542e-014
rhumerus -26.564 2.3994 -85.7629
rradius 28.7649
rwrist -11.2694
rhand -20.9362 12.4099
rfingers 7.12502
rthumb 5.43594 -17.5004
lclavicle -1.04362e-014 2.38542e-014
lhumerus -25.1948 -4.09522 91.5779
lradius 24.4532
lwrist -0.02867
lhand -11.7305 30.6136
lfingers 7.12502
lthumb 14.3167 60.1
rfemur -17.5209 3.1935 24.69
rtibia 31.8256
rfoot -17.4083 -5.72939
rtoes 2.67734
lfemur -22.5477 2.88043 -12.9756
ltibia 38.7184
lfoot -19.4547 6.715
ltoes -6.04954
3
root 1.08792 17.813 -7.9778 9.12299 -6.48994 -7.80315
lowerback -5.15537 0.335553 -0.0287611
upperback 0.343759 0.271234 5.2947
thorax 3.2274 0.0859175 5.54498
lowerneck -20.1708 -0.888946 -0.520753
upperneck 37.8548 0.950442 -5.25297
head 17.3202 -0.493725 -2.11198
rclavicle -3.08116e-015 5.4467e-014
rhumerus -26.4287 2.49709 -85.7579
rradius 28.8494
rwrist -11.2326
rhand -20.8744 12.3167
rfingers 7.12502
rthumb 5.4956 -17.592
lclavicle -3.08116e-015 5.4467e-014
lhumerus -25.009 -4.33548 91.6534
lradius 24.5683
lwrist 0.411011
lhand -12.0728 30.4404
lfingers 7.12502
lthumb 13.9868 59.9498
rfemur -17.5895 3.15932 24.7768
rtibia 31.7769
rfoot -17.4269 -5.5669
rtoes 3.56464
lfemur -22.6498 2.7745 -12.8632
ltibia 38.6982
lfoot -19.3553 6.75571
ltoes -6.13505
4
root 1.07917 17.8136 -7.97937 9.10758 -6.35598 -7.80399
lowerback -5.24923 0.348715 0.0153655
upperback 0.402577 0.279866 5.31636
thorax 3.34068 0.088479 5.54602
lowerneck -20.0903 -0.701256 -0.392171
upperneck 38.0789 1.24129 -5.35496
head 17.4375 -0.371426 -2.1315
rclavicle 7.8023e-015 3.22031e-014
rhumerus -26.3733 2.60372 -85.7702
rradius 28.9476
rwrist -11.1686
rhand -20.9391 12.4345
rfingers 7.12502
rthumb 5.43319 -17.4759
lclavicle 7.8023e-015 3.22031e-014
lhumerus -24.8703 -4.52202 91.7185
lradius 24.6865
lwrist 0.838997
lhand -12.4881 30.0521
lfingers 7.12502
lthumb 13.5866 59.5888
rfemur -17.5397 3.14975 24.8212
rtibia 31.7235
rfoot -17.4746 -5.70663
rtoes 2.55344
lfemur -22.6446 2.54 -12.7889
ltibia 38.6709
lfoot -19.3779 6.70315
ltoes -5.0829
5
root 1.06891 17.8147 -7.98075 9.03725 -6.17191 -7.77819
lowerback -5.31997 0.381326 0.0489173
upperback 0.49836 0.316331 5.27969
thorax 3.47682 0.104713 5.49381
lowerneck -20.1338 -0.551109 -0.122308
upperneck 38.3134 1.43215 -5.48283
head 17.5901 -0.273168 -2.211
rclavicle -2.58917e-014 3.18055e-015
rhumerus -26.288 2.57013 -85.8255
rradius 28.9957
rwrist -10.9994
rhand -21.1254 12.5568
rfingers 7.12502
rthumb 5.2533 -17.3581
lclavicle -2.58917e-014 3.18055e-015
lhumerus -24.7132 -4.914 91.7365
lradius 24.9081
lwrist 1.23521
lhand -12.6542 29.9293
lfingers 7.12502
lthumb 13.4265 59.4766
rfemur -17.4555 3.01365 24.8673
rtibia 31.7155
rfoot -17.5411 -5.83188
rtoes 1.43183
lfemur -22.6007 2.40737 -12.741
ltibia 38.6499
lfoot -19.5023 6.50363
ltoes -4.29309
6
root 1.05936 17.8162 -7.98141 8.98598 -6.01796 -7.81645
lowerback -5.05099 0.437903 0.231006
upperback 0.384284 0.39747 5.19768
thorax 3.20048 0.154667 5.30201
lowerneck -20.07 -0.394281 0.195603
upperneck 38.5796 1.59423 -5.56659
head 17.7326 -0.171922 -2.28495
rclavicle -6.85807e-015 -1.35174e-014
rhumerus -26.4469 2.45481 -85.9513
rradius 28.9902
rwrist -10.8795
rhand -21.2286 12.6072
rfingers 7.12502
rthumb 5.15358 -17.3101
lclavicle -6.85807e-015 -1.35174e-014
lhumerus -24.8963 -5.35215 91.6937
lradius 25.2343
lwrist 1.54116
lhand -12.5915 30.2323
lfingers 7.12502
lthumb 13.487 59.7756
rfemur -17.3861 2.92573 24.9741
rtibia 31.7159
rfoot -17.5666 -5.88779
rtoes 1.32428
lfemur -22.574 2.46225 -12.6535
ltibia 38.6303
lfoot -19.5771 6.31068
ltoes -4.64912
